<svg version="1.1" id="Layer_1" xmlns="http://www.w3.org/2000/svg" x="0" y="0" viewBox="0 0 595 193" xml:space="preserve"><style>.st1,.st2{fill:#fff}.st2{fill-rule:evenodd;clip-rule:evenodd}.st3,.st4{fill:white}.st4{fill-rule:evenodd;clip-rule:evenodd}</style><path fill="#e30917" d="M18.8 145.9h558.7v31.2H18.8z"/><path class="st1" d="M96.2 152.8c-3.2-.7-6.5-1-9.8-1-5.4-.1-10.8 1-15.7 3.3-3.9 2-6.1 4.6-6.1 7.4 0 3 2.1 5.6 6.6 7.6 4.9 2 10.2 3.1 15.5 3 3.2-.1 6.4-.4 9.5-.9v-6.3c-2.9 1.5-6.1 2.2-9.3 2.1-6.7 0-11.2-2.3-11.2-5.5s4.4-5.6 11-5.6c3.7 0 7.2.8 9.4 2.2l.1-6.3"/><path class="st2" d="M145.5 156.8c6.4 0 11.7 2.5 11.7 5.3 0 3.5-5.3 6-11.7 6s-11.7-2.5-11.7-6c.1-2.8 5.3-5.3 11.7-5.3m0-5.1c-11.9 0-22.9 4.3-22.9 10.4 0 6.5 9.6 11.2 22.9 11.2s22.9-4.6 22.9-11.2c0-6.1-11-10.4-22.9-10.4z"/><path class="st1" d="M192.9 172.6h10.7l3.4-11.7h.1l9.5 11.7h4.3l9.9-11.7h.1l3 11.7h10.8l-6.3-20.3h-10.6l-8.9 10.8-8.4-10.8h-10.6l-7 20.3"/><path class="st2" d="M281.9 156.6h1.8c4.2 0 7.7 0 7.7 2.6s-3.8 2.5-7.7 2.5h-1.8v-5.1m-10.7 16H282v-6.7h6.1c9.4 0 14.6-2.1 14.6-6.9s-6.1-6.6-15-6.6h-16.5v20.2z"/><path class="st1" d="M354.5 152.4V163c0 2.6-.4 5.5-7.3 5.5s-7.3-2.9-7.3-5.5v-10.6h-10.8v11.4c0 2.6.2 5.2 4.3 7.1 3.5 1.7 8.9 2.3 13.7 2.3s10.3-.6 13.7-2.3c4.1-2 4.3-4.5 4.3-7.1v-11.4h-10.6m55.9 4.4h8.9v-4.5h-28.5v4.5h8.9v15.8h10.7v-15.8m58.3 0v-4.5h-23.6v20.3h23.6v-4.5h-12.8v-3.5H468v-4.5h-12.1v-3.3h12.8"/><path class="st2" d="M508 156.4h1c3.5 0 7.5.3 7.5 2.5s-4 2.5-7.5 2.5h-1v-5m10.6 7.9c5.9-.5 9-2.9 9-5.7 0-4.3-6.2-6.2-14.4-6.2h-16v20.2H508v-7.8h.1l10.1 7.8h13.4l-13-8.3z"/><path class="st3" d="M159.4 17.6L108.7 140H68.5L17.9 17.6h49.6l17.3 59.6c2.2 7.5 3.3 14 3.3 19.5h1c.2-6.6 1.3-13.2 3.3-19.5l17.3-59.6h49.7"/><path class="st4" d="M199.9 106.9c3.6.2 7-1.5 9.2-4.4 2-2.8 2.9-6.2 2.8-9.6.1-3.3-1.1-6.5-3.3-8.9-2.3-2.3-5.4-3.6-8.7-3.5-3.3-.1-6.4 1.3-8.5 3.8-2.1 2.5-3.2 5.6-3.1 8.9 0 9.2 3.8 13.7 11.6 13.7m12 20.9h-1c-4.5 4.9-8.6 8.3-12.3 10.4-4.8 2.6-10.3 3.9-15.8 3.8-11.8 0-21.4-5.2-28.8-15.5-6.7-9.3-10-20.1-10.1-32.3 0-12.7 3.4-23.7 10.2-33 7.6-10.4 17.6-15.6 29.8-15.6 11.6 0 20.5 4.3 26.9 13h1l-1.4-11h43.9V140h-43.9l1.5-12.2z"/><path class="st3" d="M322.8 48.9l14.9-.7v35.3l-14.9-.9V140h-45.1V82.6l-10.9.9V48.2l10.9.7v-31h45.1v31"/><path class="st4" d="M399.8 106.9c3.6.2 7-1.5 9.2-4.4 1.9-2.4 2.8-5.6 2.8-9.6.1-3.3-1.1-6.5-3.3-8.9-2.3-2.3-5.4-3.6-8.7-3.5-3.3-.1-6.4 1.3-8.5 3.8-2.1 2.5-3.2 5.6-3.1 8.9 0 9.2 3.9 13.7 11.6 13.7m12 20.9h-1c-4.5 4.9-8.6 8.3-12.3 10.4-4.8 2.6-10.3 3.9-15.8 3.8-11.8 0-21.4-5.2-28.8-15.5-6.7-9.3-10.1-20.1-10.1-32.3 0-12.7 3.4-23.7 10.2-33 7.6-10.4 17.6-15.6 29.8-15.6 11.6 0 20.5 4.3 26.9 13h1l-1.4-11h43.9V140h-43.9l1.5-12.2z"/><path class="st3" d="M513.7 62.4h1c5.2-6 9.4-10.1 12.7-12.2 5.1-3.2 11-4.9 17-4.7 10.8 0 19 3.7 24.6 11.1 4.9 6.6 7.3 15.4 7.3 26.4v57h-44.7V95c0-8.7-2.5-13-7.6-13-5 0-7.5 4.3-7.5 13v45h-44.7V47.6h43.7l-1.8 14.8"/></svg>